<svg width="553" height="42" viewBox="0 0 553 42" fill="none" xmlns="http://www.w3.org/2000/svg">
<path d="M53.12 1C58.624 1 62.528 1.98133 64.832 3.944C67.1787 5.864 68.352 9 68.352 13.352C68.352 15.5707 68.096 18.1307 67.584 21.032C66.304 28.2 64.1067 33.32 60.992 36.392C57.92 39.464 52.9493 41 46.08 41H29.056L36.096 1H53.12ZM51.456 11.24H46.4L43.008 30.76H48.064C49.728 30.76 50.9653 30.568 51.776 30.184C52.5867 29.7573 53.12 28.8187 53.376 27.368L55.616 14.632C55.6587 14.376 55.68 14.0347 55.68 13.608C55.68 12.6267 55.3387 11.9867 54.656 11.688C53.9733 11.3893 52.9067 11.24 51.456 11.24ZM27.136 40.808L0 37.928H27.648L27.136 40.808ZM29.312 28.456L2.176 25.576H29.824L29.312 28.456ZM30.4 22.312L3.264 19.432H30.912L30.4 22.312ZM31.488 16.168L4.352 13.288H32L31.488 16.168ZM32.576 10.024L5.44 7.144H33.024L32.576 10.024ZM28.224 34.6L1.088 31.72H28.736L28.224 34.6ZM33.6 3.88L6.528 1H34.112L33.6 3.88ZM94.9005 41H82.1005L98.9325 1H117.749L120.565 41H107.701L107.444 34.664H97.3965L94.9005 41ZM106.485 24.488V13.288H105.845L101.365 24.488H106.485ZM80.0525 40.744L53.8125 37.928H81.2685L80.0525 40.744ZM82.6765 34.536L56.4365 31.72H83.8925L82.6765 34.536ZM85.3005 28.392L59.0605 25.576H86.4525L85.3005 28.392ZM87.8605 22.248L61.6845 19.432H89.0765L87.8605 22.248ZM90.4845 16.104L64.3085 13.288H91.6365L90.4845 16.104ZM95.6685 3.752L69.5565 1H96.8205L95.6685 3.752ZM93.0445 9.896L66.9325 7.144H94.1965L93.0445 9.896ZM95.6685 3.752L96.8205 1H69.5565L95.6685 3.752ZM154.65 31.016C156.314 31.016 157.551 30.824 158.362 30.44C159.173 30.0133 159.706 29.0747 159.962 27.624L162.906 10.984H157.786C156.165 10.984 154.949 11.1973 154.138 11.624C153.327 12.008 152.794 12.9253 152.538 14.376L149.594 31.016H154.65ZM159.898 0.0399971C165.317 0.0399971 169.178 1.10666 171.482 3.24C173.786 5.33067 174.938 8.57333 174.938 12.968C174.938 17.3627 174.234 21.9707 172.826 26.792C171.461 31.5707 169.263 35.304 166.234 37.992C163.247 40.6373 158.853 41.96 153.05 41.96C147.29 41.96 143.258 40.9147 140.954 38.824C138.65 36.6907 137.498 33.4267 137.498 29.032C137.498 26.9413 137.797 24.1893 138.394 20.776C138.991 17.32 139.781 14.3547 140.762 11.88C141.743 9.36267 143.066 7.18667 144.73 5.352C147.93 1.81066 152.986 0.0399971 159.898 0.0399971ZM136.538 20.712C136.453 21.0533 136.367 21.5227 136.282 22.12L111.13 19.432H136.73L136.538 20.712ZM135.834 25.576C135.706 26.5573 135.642 27.4533 135.642 28.264L110.426 25.576H135.834ZM138.266 13.288L137.498 15.912L112.666 13.288H138.266ZM135.706 31.72C135.877 32.9147 136.026 33.8107 136.154 34.408L111.258 31.72H135.706ZM140.89 7.144C140.293 8.25333 139.866 9.10667 139.61 9.704L115.674 7.144H140.89ZM137.626 37.928C138.181 38.9093 138.821 39.6987 139.546 40.296L117.402 37.928H137.626ZM146.97 1C145.733 1.768 144.773 2.472 144.09 3.112L124.506 1H146.97ZM214.582 26.152H204.214L201.654 41H189.494L196.534 1H221.494L218.102 11.24H206.838L205.942 16.616H216.31L214.582 26.152ZM187.574 40.808L160.438 37.928H188.086L187.574 40.808ZM189.75 28.456L162.613 25.576H190.262L189.75 28.456ZM190.838 22.312L163.701 19.432H191.35L190.838 22.312ZM191.926 16.168L164.789 13.288H192.438L191.926 16.168ZM193.014 10.024L165.877 7.144H193.462L193.014 10.024ZM188.662 34.6L161.525 31.72H189.174L188.662 34.6ZM194.038 3.88L166.965 1H194.55L194.038 3.88ZM249.463 31.016C251.127 31.016 252.364 30.824 253.175 30.44C253.985 30.0133 254.519 29.0747 254.775 27.624L257.719 10.984H252.599C250.977 10.984 249.761 11.1973 248.951 11.624C248.14 12.008 247.607 12.9253 247.351 14.376L244.407 31.016H249.463ZM254.711 0.0399971C260.129 0.0399971 263.991 1.10666 266.295 3.24C268.599 5.33067 269.751 8.57333 269.751 12.968C269.751 17.3627 269.047 21.9707 267.639 26.792C266.273 31.5707 264.076 35.304 261.047 37.992C258.06 40.6373 253.665 41.96 247.863 41.96C242.103 41.96 238.071 40.9147 235.767 38.824C233.463 36.6907 232.311 33.4267 232.311 29.032C232.311 26.9413 232.609 24.1893 233.207 20.776C233.804 17.32 234.593 14.3547 235.575 11.88C236.556 9.36267 237.879 7.18667 239.543 5.352C242.743 1.81066 247.799 0.0399971 254.711 0.0399971ZM231.351 20.712C231.265 21.0533 231.18 21.5227 231.095 22.12L205.942 19.432H231.543L231.351 20.712ZM230.647 25.576C230.519 26.5573 230.455 27.4533 230.455 28.264L205.238 25.576H230.647ZM233.079 13.288L232.311 15.912L207.478 13.288H233.079ZM230.519 31.72C230.689 32.9147 230.839 33.8107 230.967 34.408L206.07 31.72H230.519ZM235.703 7.144C235.105 8.25333 234.679 9.10667 234.423 9.704L210.486 7.144H235.703ZM232.439 37.928C232.993 38.9093 233.633 39.6987 234.359 40.296L212.214 37.928H232.439ZM241.783 1C240.545 1.768 239.585 2.472 238.903 3.112L219.319 1H241.783ZM301.65 31.016C303.314 31.016 304.551 30.824 305.362 30.44C306.173 30.0133 306.706 29.0747 306.962 27.624L309.906 10.984H304.786C303.165 10.984 301.949 11.1973 301.138 11.624C300.327 12.008 299.794 12.9253 299.538 14.376L296.594 31.016H301.65ZM306.898 0.0399971C312.317 0.0399971 316.178 1.10666 318.482 3.24C320.786 5.33067 321.938 8.57333 321.938 12.968C321.938 17.3627 321.234 21.9707 319.826 26.792C318.461 31.5707 316.263 35.304 313.234 37.992C310.247 40.6373 305.853 41.96 300.05 41.96C294.29 41.96 290.258 40.9147 287.954 38.824C285.65 36.6907 284.498 33.4267 284.498 29.032C284.498 26.9413 284.797 24.1893 285.394 20.776C285.991 17.32 286.781 14.3547 287.762 11.88C288.743 9.36267 290.066 7.18667 291.73 5.352C294.93 1.81066 299.986 0.0399971 306.898 0.0399971ZM283.538 20.712C283.453 21.0533 283.367 21.5227 283.282 22.12L258.13 19.432H283.73L283.538 20.712ZM282.834 25.576C282.706 26.5573 282.642 27.4533 282.642 28.264L257.426 25.576H282.834ZM285.266 13.288L284.498 15.912L259.666 13.288H285.266ZM282.706 31.72C282.877 32.9147 283.026 33.8107 283.154 34.408L258.258 31.72H282.706ZM287.89 7.144C287.293 8.25333 286.866 9.10667 286.61 9.704L262.674 7.144H287.89ZM284.626 37.928C285.181 38.9093 285.821 39.6987 286.546 40.296L264.402 37.928H284.626ZM293.97 1C292.733 1.768 291.773 2.472 291.09 3.112L271.506 1H293.97ZM370.542 11.24H361.71L356.526 41H344.366L349.55 11.24H340.782L342.638 1H372.398L370.542 11.24ZM342.382 40.808L315.245 37.928H342.894L342.382 40.808ZM344.558 28.456L317.421 25.576H345.07L344.558 28.456ZM345.646 22.312L318.509 19.432H346.158L345.646 22.312ZM346.734 16.168L319.597 13.288H347.246L346.734 16.168ZM343.47 34.6L316.333 31.72H343.982L343.47 34.6ZM339.054 10.024L311.917 7.144H339.502L339.054 10.024ZM340.078 3.88L313.005 1H340.59L340.078 3.88ZM409.746 1C412.818 1 415.036 1.53333 416.402 2.6C417.81 3.66666 418.514 5.30933 418.514 7.528C418.514 10.7707 417.788 13.4373 416.338 15.528C414.93 17.6187 413.202 18.92 411.154 19.432L411.09 19.816C414.93 20.5413 416.85 23.08 416.85 27.432C416.85 31.272 415.804 34.4933 413.714 37.096C411.623 39.6987 408.679 41 404.882 41H382.994L390.034 1H409.746ZM402.706 25.064H397.906L396.754 31.592H401.49C402.556 31.592 403.367 31.1653 403.922 30.312C404.476 29.4587 404.754 28.3707 404.754 27.048C404.754 25.7253 404.071 25.064 402.706 25.064ZM404.498 9.768H400.658L399.57 15.72H403.346C405.308 15.72 406.29 14.3333 406.29 11.56C406.29 10.3653 405.692 9.768 404.498 9.768ZM381.074 40.808L353.938 37.928H381.586L381.074 40.808ZM383.25 28.456L356.113 25.576H383.762L383.25 28.456ZM384.338 22.312L357.201 19.432H384.85L384.338 22.312ZM385.426 16.168L358.289 13.288H385.938L385.426 16.168ZM386.514 10.024L359.377 7.144H386.962L386.514 10.024ZM382.162 34.6L355.025 31.72H382.674L382.162 34.6ZM387.538 3.88L360.465 1H388.05L387.538 3.88ZM444.588 41H431.788L448.62 1H467.436L470.252 41H457.388L457.132 34.664H447.084L444.588 41ZM456.172 24.488V13.288H455.532L451.052 24.488H456.172ZM429.74 40.744L403.5 37.928H430.956L429.74 40.744ZM432.364 34.536L406.124 31.72H433.58L432.364 34.536ZM434.988 28.392L408.748 25.576H436.14L434.988 28.392ZM437.548 22.248L411.372 19.432H438.764L437.548 22.248ZM440.172 16.104L413.996 13.288H441.324L440.172 16.104ZM445.356 3.752L419.244 1H446.508L445.356 3.752ZM442.732 9.896L416.62 7.144H443.884L442.732 9.896ZM445.356 3.752L446.508 1H419.244L445.356 3.752ZM511.314 41H486.994L494.034 1H506.194L500.946 30.76H513.106L511.314 41ZM485.074 40.808L457.938 37.928H485.586L485.074 40.808ZM487.25 28.456L460.113 25.576H487.762L487.25 28.456ZM488.338 22.312L461.201 19.432H488.85L488.338 22.312ZM489.426 16.168L462.289 13.288H489.938L489.426 16.168ZM490.514 10.024L463.377 7.144H490.962L490.514 10.024ZM486.162 34.6L459.025 31.72H486.674L486.162 34.6ZM491.538 3.88L464.465 1H492.05L491.538 3.88ZM551.126 41H526.806L533.846 1H546.006L540.758 30.76H552.918L551.126 41ZM524.886 40.808L497.75 37.928H525.398L524.886 40.808ZM527.062 28.456L499.926 25.576H527.574L527.062 28.456ZM528.15 22.312L501.014 19.432H528.662L528.15 22.312ZM529.238 16.168L502.102 13.288H529.75L529.238 16.168ZM530.326 10.024L503.19 7.144H530.774L530.326 10.024ZM525.974 34.6L498.838 31.72H526.486L525.974 34.6ZM531.35 3.88L504.278 1H531.862L531.35 3.88Z" fill="#FAFEF8"/>
</svg>
